0
SECTION
2
HEADER
9
$INSUNITS
70
4
0
ENDSEC
0
SECTION
2
TABLES
0
TABLE
2
LTYPE
0
LTYPE
72
65
70
64
2
CONTINUOUS
3
______
73
0
40
0
0
ENDTAB
0
TABLE
2
LAYER
0
ENDTAB
0
ENDSEC
0
SECTION
2
ENTITIES
0
LINE
8
front_outsideCutPath
10
0
20
123
11
0
21
104.58615
0
LINE
8
front_outsideCutPath
10
0
20
104.58615
11
3
21
104.58615
0
LINE
8
front_outsideCutPath
10
3
20
104.58615
11
3
21
76.86205
0
LINE
8
front_outsideCutPath
10
3
20
76.86205
11
0
21
76.86205
0
LINE
8
front_outsideCutPath
10
0
20
76.86205
11
0
21
49.13795
0
LINE
8
front_outsideCutPath
10
0
20
49.13795
11
3
21
49.13795
0
LINE
8
front_outsideCutPath
10
3
20
49.13795
11
3
21
21.41385
0
LINE
8
front_outsideCutPath
10
3
20
21.41385
11
0
21
21.41385
0
LINE
8
front_outsideCutPath
10
0
20
21.41385
11
0
21
3
0
LINE
8
front_outsideCutPath
10
0
20
3
11
18.41385
21
3
0
LINE
8
front_outsideCutPath
10
18.41385
20
3
11
18.41385
21
6
0
LINE
8
front_outsideCutPath
10
18.41385
20
6
11
46.13795
21
6
0
LINE
8
front_outsideCutPath
10
46.13795
20
6
11
46.13795
21
3
0
LINE
8
front_outsideCutPath
10
46.13795
20
3
11
73.86205
21
3
0
LINE
8
front_outsideCutPath
10
73.86205
20
3
11
73.86205
21
6
0
LINE
8
front_outsideCutPath
10
73.86205
20
6
11
101.58615
21
6
0
LINE
8
front_outsideCutPath
10
101.58615
20
6
11
101.58615
21
3
0
LINE
8
front_outsideCutPath
10
101.58615
20
3
11
120
21
3
0
LINE
8
front_outsideCutPath
10
120
20
3
11
120
21
21.41385
0
LINE
8
front_outsideCutPath
10
120
20
21.41385
11
117
21
21.41385
0
LINE
8
front_outsideCutPath
10
117
20
21.41385
11
117
21
49.13795
0
LINE
8
front_outsideCutPath
10
117
20
49.13795
11
120
21
49.13795
0
LINE
8
front_outsideCutPath
10
120
20
49.13795
11
120
21
76.86205
0
LINE
8
front_outsideCutPath
10
120
20
76.86205
11
117
21
76.86205
0
LINE
8
front_outsideCutPath
10
117
20
76.86205
11
117
21
104.58615
0
LINE
8
front_outsideCutPath
10
117
20
104.58615
11
120
21
104.58615
0
LINE
8
front_outsideCutPath
10
120
20
104.58615
11
120
21
123
0
LINE
8
front_outsideCutPath
10
120
20
123
11
101.58615
21
123
0
LINE
8
front_outsideCutPath
10
101.58615
20
123
11
101.58615
21
120
0
LINE
8
front_outsideCutPath
10
101.58615
20
120
11
73.86205
21
120
0
LINE
8
front_outsideCutPath
10
73.86205
20
120
11
73.86205
21
123
0
LINE
8
front_outsideCutPath
10
73.86205
20
123
11
46.13795
21
123
0
LINE
8
front_outsideCutPath
10
46.13795
20
123
11
46.13795
21
120
0
LINE
8
front_outsideCutPath
10
46.13795
20
120
11
18.41385
21
120
0
LINE
8
front_outsideCutPath
10
18.41385
20
120
11
18.41385
21
123
0
LINE
8
front_outsideCutPath
10
18.41385
20
123
11
0
21
123
0
LINE
8
left_outsideCutPath
10
126
20
123
11
126
21
104.58615
0
LINE
8
left_outsideCutPath
10
126
20
104.58615
11
123
21
104.58615
0
LINE
8
left_outsideCutPath
10
123
20
104.58615
11
123
21
76.86205
0
LINE
8
left_outsideCutPath
10
123
20
76.86205
11
126
21
76.86205
0
LINE
8
left_outsideCutPath
10
126
20
76.86205
11
126
21
49.13795
0
LINE
8
left_outsideCutPath
10
126
20
49.13795
11
123
21
49.13795
0
LINE
8
left_outsideCutPath
10
123
20
49.13795
11
123
21
21.41385
0
LINE
8
left_outsideCutPath
10
123
20
21.41385
11
126
21
21.41385
0
LINE
8
left_outsideCutPath
10
126
20
21.41385
11
126
21
3
0
LINE
8
left_outsideCutPath
10
126
20
3
11
144.13795
21
3
0
LINE
8
left_outsideCutPath
10
144.13795
20
3
11
144.13795
21
6
0
LINE
8
left_outsideCutPath
10
144.13795
20
6
11
171.86205
21
6
0
LINE
8
left_outsideCutPath
10
171.86205
20
6
11
171.86205
21
3
0
LINE
8
left_outsideCutPath
10
171.86205
20
3
11
190
21
3
0
LINE
8
left_outsideCutPath
10
190
20
3
11
190
21
21.41385
0
LINE
8
left_outsideCutPath
10
190
20
21.41385
11
193
21
21.41385
0
LINE
8
left_outsideCutPath
10
193
20
21.41385
11
193
21
49.13795
0
LINE
8
left_outsideCutPath
10
193
20
49.13795
11
190
21
49.13795
0
LINE
8
left_outsideCutPath
10
190
20
49.13795
11
190
21
76.86205
0
LINE
8
left_outsideCutPath
10
190
20
76.86205
11
193
21
76.86205
0
LINE
8
left_outsideCutPath
10
193
20
76.86205
11
193
21
104.58615
0
LINE
8
left_outsideCutPath
10
193
20
104.58615
11
190
21
104.58615
0
LINE
8
left_outsideCutPath
10
190
20
104.58615
11
190
21
123
0
LINE
8
left_outsideCutPath
10
190
20
123
11
171.86205
21
123
0
LINE
8
left_outsideCutPath
10
171.86205
20
123
11
171.86205
21
120
0
LINE
8
left_outsideCutPath
10
171.86205
20
120
11
144.13795
21
120
0
LINE
8
left_outsideCutPath
10
144.13795
20
120
11
144.13795
21
123
0
LINE
8
left_outsideCutPath
10
144.13795
20
123
11
126
21
123
0
LINE
8
top_outsideCutPath
10
199
20
70
11
199
21
51.86205
0
LINE
8
top_outsideCutPath
10
199
20
51.86205
11
196
21
51.86205
0
LINE
8
top_outsideCutPath
10
196
20
51.86205
11
196
21
24.13795
0
LINE
8
top_outsideCutPath
10
196
20
24.13795
11
199
21
24.13795
0
LINE
8
top_outsideCutPath
10
199
20
24.13795
11
199
21
6
0
LINE
8
top_outsideCutPath
10
199
20
6
11
214.41385
21
6
0
LINE
8
top_outsideCutPath
10
214.41385
20
6
11
214.41385
21
3
0
LINE
8
top_outsideCutPath
10
214.41385
20
3
11
242.13795
21
3
0
LINE
8
top_outsideCutPath
10
242.13795
20
3
11
242.13795
21
6
0
LINE
8
top_outsideCutPath
10
242.13795
20
6
11
269.86205
21
6
0
LINE
8
top_outsideCutPath
10
269.86205
20
6
11
269.86205
21
3
0
LINE
8
top_outsideCutPath
10
269.86205
20
3
11
297.58615
21
3
0
LINE
8
top_outsideCutPath
10
297.58615
20
3
11
297.58615
21
6
0
LINE
8
top_outsideCutPath
10
297.58615
20
6
11
313
21
6
0
LINE
8
top_outsideCutPath
10
313
20
6
11
313
21
24.13795
0
LINE
8
top_outsideCutPath
10
313
20
24.13795
11
316
21
24.13795
0
LINE
8
top_outsideCutPath
10
316
20
24.13795
11
316
21
51.86205
0
LINE
8
top_outsideCutPath
10
316
20
51.86205
11
313
21
51.86205
0
LINE
8
top_outsideCutPath
10
313
20
51.86205
11
313
21
70
0
LINE
8
top_outsideCutPath
10
313
20
70
11
297.58615
21
70
0
LINE
8
top_outsideCutPath
10
297.58615
20
70
11
297.58615
21
73
0
LINE
8
top_outsideCutPath
10
297.58615
20
73
11
269.86205
21
73
0
LINE
8
top_outsideCutPath
10
269.86205
20
73
11
269.86205
21
70
0
LINE
8
top_outsideCutPath
10
269.86205
20
70
11
242.13795
21
70
0
LINE
8
top_outsideCutPath
10
242.13795
20
70
11
242.13795
21
73
0
LINE
8
top_outsideCutPath
10
242.13795
20
73
11
214.41385
21
73
0
LINE
8
top_outsideCutPath
10
214.41385
20
73
11
214.41385
21
70
0
LINE
8
top_outsideCutPath
10
214.41385
20
70
11
199
21
70
0
LINE
8
back_outsideCutPath
10
0
20
246
11
0
21
227.58615
0
LINE
8
back_outsideCutPath
10
0
20
227.58615
11
3
21
227.58615
0
LINE
8
back_outsideCutPath
10
3
20
227.58615
11
3
21
199.86205
0
LINE
8
back_outsideCutPath
10
3
20
199.86205
11
0
21
199.86205
0
LINE
8
back_outsideCutPath
10
0
20
199.86205
11
0
21
172.13795
0
LINE
8
back_outsideCutPath
10
0
20
172.13795
11
3
21
172.13795
0
LINE
8
back_outsideCutPath
10
3
20
172.13795
11
3
21
144.41385
0
LINE
8
back_outsideCutPath
10
3
20
144.41385
11
0
21
144.41385
0
LINE
8
back_outsideCutPath
10
0
20
144.41385
11
0
21
126
0
LINE
8
back_outsideCutPath
10
0
20
126
11
18.41385
21
126
0
LINE
8
back_outsideCutPath
10
18.41385
20
126
11
18.41385
21
129
0
LINE
8
back_outsideCutPath
10
18.41385
20
129
11
46.13795
21
129
0
LINE
8
back_outsideCutPath
10
46.13795
20
129
11
46.13795
21
126
0
LINE
8
back_outsideCutPath
10
46.13795
20
126
11
73.86205
21
126
0
LINE
8
back_outsideCutPath
10
73.86205
20
126
11
73.86205
21
129
0
LINE
8
back_outsideCutPath
10
73.86205
20
129
11
101.58615
21
129
0
LINE
8
back_outsideCutPath
10
101.58615
20
129
11
101.58615
21
126
0
LINE
8
back_outsideCutPath
10
101.58615
20
126
11
120
21
126
0
LINE
8
back_outsideCutPath
10
120
20
126
11
120
21
144.41385
0
LINE
8
back_outsideCutPath
10
120
20
144.41385
11
117
21
144.41385
0
LINE
8
back_outsideCutPath
10
117
20
144.41385
11
117
21
172.13795
0
LINE
8
back_outsideCutPath
10
117
20
172.13795
11
120
21
172.13795
0
LINE
8
back_outsideCutPath
10
120
20
172.13795
11
120
21
199.86205
0
LINE
8
back_outsideCutPath
10
120
20
199.86205
11
117
21
199.86205
0
LINE
8
back_outsideCutPath
10
117
20
199.86205
11
117
21
227.58615
0
LINE
8
back_outsideCutPath
10
117
20
227.58615
11
120
21
227.58615
0
LINE
8
back_outsideCutPath
10
120
20
227.58615
11
120
21
246
0
LINE
8
back_outsideCutPath
10
120
20
246
11
101.58615
21
246
0
LINE
8
back_outsideCutPath
10
101.58615
20
246
11
101.58615
21
243
0
LINE
8
back_outsideCutPath
10
101.58615
20
243
11
73.86205
21
243
0
LINE
8
back_outsideCutPath
10
73.86205
20
243
11
73.86205
21
246
0
LINE
8
back_outsideCutPath
10
73.86205
20
246
11
46.13795
21
246
0
LINE
8
back_outsideCutPath
10
46.13795
20
246
11
46.13795
21
243
0
LINE
8
back_outsideCutPath
10
46.13795
20
243
11
18.41385
21
243
0
LINE
8
back_outsideCutPath
10
18.41385
20
243
11
18.41385
21
246
0
LINE
8
back_outsideCutPath
10
18.41385
20
246
11
0
21
246
0
LINE
8
right_outsideCutPath
10
126
20
246
11
126
21
227.58615
0
LINE
8
right_outsideCutPath
10
126
20
227.58615
11
123
21
227.58615
0
LINE
8
right_outsideCutPath
10
123
20
227.58615
11
123
21
199.86205
0
LINE
8
right_outsideCutPath
10
123
20
199.86205
11
126
21
199.86205
0
LINE
8
right_outsideCutPath
10
126
20
199.86205
11
126
21
172.13795
0
LINE
8
right_outsideCutPath
10
126
20
172.13795
11
123
21
172.13795
0
LINE
8
right_outsideCutPath
10
123
20
172.13795
11
123
21
144.41385
0
LINE
8
right_outsideCutPath
10
123
20
144.41385
11
126
21
144.41385
0
LINE
8
right_outsideCutPath
10
126
20
144.41385
11
126
21
126
0
LINE
8
right_outsideCutPath
10
126
20
126
11
144.13795
21
126
0
LINE
8
right_outsideCutPath
10
144.13795
20
126
11
144.13795
21
129
0
LINE
8
right_outsideCutPath
10
144.13795
20
129
11
171.86205
21
129
0
LINE
8
right_outsideCutPath
10
171.86205
20
129
11
171.86205
21
126
0
LINE
8
right_outsideCutPath
10
171.86205
20
126
11
190
21
126
0
LINE
8
right_outsideCutPath
10
190
20
126
11
190
21
144.41385
0
LINE
8
right_outsideCutPath
10
190
20
144.41385
11
193
21
144.41385
0
LINE
8
right_outsideCutPath
10
193
20
144.41385
11
193
21
172.13795
0
LINE
8
right_outsideCutPath
10
193
20
172.13795
11
190
21
172.13795
0
LINE
8
right_outsideCutPath
10
190
20
172.13795
11
190
21
199.86205
0
LINE
8
right_outsideCutPath
10
190
20
199.86205
11
193
21
199.86205
0
LINE
8
right_outsideCutPath
10
193
20
199.86205
11
193
21
227.58615
0
LINE
8
right_outsideCutPath
10
193
20
227.58615
11
190
21
227.58615
0
LINE
8
right_outsideCutPath
10
190
20
227.58615
11
190
21
246
0
LINE
8
right_outsideCutPath
10
190
20
246
11
171.86205
21
246
0
LINE
8
right_outsideCutPath
10
171.86205
20
246
11
171.86205
21
243
0
LINE
8
right_outsideCutPath
10
171.86205
20
243
11
144.13795
21
243
0
LINE
8
right_outsideCutPath
10
144.13795
20
243
11
144.13795
21
246
0
LINE
8
right_outsideCutPath
10
144.13795
20
246
11
126
21
246
0
LINE
8
bottom_outsideCutPath
10
199
20
143
11
199
21
124.86205
0
LINE
8
bottom_outsideCutPath
10
199
20
124.86205
11
196
21
124.86205
0
LINE
8
bottom_outsideCutPath
10
196
20
124.86205
11
196
21
97.13795
0
LINE
8
bottom_outsideCutPath
10
196
20
97.13795
11
199
21
97.13795
0
LINE
8
bottom_outsideCutPath
10
199
20
97.13795
11
199
21
79
0
LINE
8
bottom_outsideCutPath
10
199
20
79
11
214.41385
21
79
0
LINE
8
bottom_outsideCutPath
10
214.41385
20
79
11
214.41385
21
76
0
LINE
8
bottom_outsideCutPath
10
214.41385
20
76
11
242.13795
21
76
0
LINE
8
bottom_outsideCutPath
10
242.13795
20
76
11
242.13795
21
79
0
LINE
8
bottom_outsideCutPath
10
242.13795
20
79
11
269.86205
21
79
0
LINE
8
bottom_outsideCutPath
10
269.86205
20
79
11
269.86205
21
76
0
LINE
8
bottom_outsideCutPath
10
269.86205
20
76
11
297.58615
21
76
0
LINE
8
bottom_outsideCutPath
10
297.58615
20
76
11
297.58615
21
79
0
LINE
8
bottom_outsideCutPath
10
297.58615
20
79
11
313
21
79
0
LINE
8
bottom_outsideCutPath
10
313
20
79
11
313
21
97.13795
0
LINE
8
bottom_outsideCutPath
10
313
20
97.13795
11
316
21
97.13795
0
LINE
8
bottom_outsideCutPath
10
316
20
97.13795
11
316
21
124.86205
0
LINE
8
bottom_outsideCutPath
10
316
20
124.86205
11
313
21
124.86205
0
LINE
8
bottom_outsideCutPath
10
313
20
124.86205
11
313
21
143
0
LINE
8
bottom_outsideCutPath
10
313
20
143
11
297.58615
21
143
0
LINE
8
bottom_outsideCutPath
10
297.58615
20
143
11
297.58615
21
146
0
LINE
8
bottom_outsideCutPath
10
297.58615
20
146
11
269.86205
21
146
0
LINE
8
bottom_outsideCutPath
10
269.86205
20
146
11
269.86205
21
143
0
LINE
8
bottom_outsideCutPath
10
269.86205
20
143
11
242.13795
21
143
0
LINE
8
bottom_outsideCutPath
10
242.13795
20
143
11
242.13795
21
146
0
LINE
8
bottom_outsideCutPath
10
242.13795
20
146
11
214.41385
21
146
0
LINE
8
bottom_outsideCutPath
10
214.41385
20
146
11
214.41385
21
143
0
LINE
8
bottom_outsideCutPath
10
214.41385
20
143
11
199
21
143
0
ENDSEC
0
EOF